<?xml version="1.0" encoding="UTF-8"?>
<svg id="Lager_2" data-name="Lager 2" xmlns="http://www.w3.org/2000/svg" viewBox="0 0 198.16 162.11">
  <defs>
    <style>
      .cls-1 {
        fill: #ee6f32;
      }

      .cls-1, .cls-2, .cls-3, .cls-4, .cls-5 {
        stroke-width: 0px;
      }

      .cls-2 {
        fill: #161b32;
      }

      .cls-3 {
        fill: #3c3c3b;
      }

      .cls-4 {
        fill: #878787;
      }

      .cls-5 {
        fill: #9d9d9c;
      }
    </style>
  </defs>
  <g id="Lager_4" data-name="Lager 4">
    <g>
      <path class="cls-5" d="m84.42,81.14v.16c.05,1.26-.12,2.39-.47,3.22-.01.05-.04.1-.06.14h-.01c-.06.15-.14.29-.22.41-.11.17-.23.3-.36.39-.07.05-.15.09-.22.12-.22.07-.45.03-.69-.08-.01,0-.02-.01-.03-.02-.08-.04-.16-.08-.24-.14-.33-.21-.67-.54-1.04-.94.39.34.75.6,1.08.75l.05.02c.12.03.23.05.34.09.02,0,.04,0,.05.01.05.01.09.02.12.03.37.01.7-.19.97-.67.14-.23.25-.49.34-.79.03-.07.05-.15.07-.22.39-1.43.33-3.45-.18-5.47.29,1,.45,2.02.5,2.99Z"/>
      <path class="cls-5" d="m99.4,88.3c-.34.49-.61.97-.8,1.43-.03.06-.05.13-.07.19h0c-.04.12-.08.24-.11.35-.02.06-.03.11-.04.16,0,.03-.01.06-.01.09-.01.03-.01.06-.02.09-.02.1-.03.18-.03.26-.02-.25.02-.48.12-.7.01-.04.03-.07.04-.11,0-.02.01-.05.02-.08h0c.01-.05.02-.11.05-.15.05-.13.1-.26.17-.4,0-.04.04-.09.06-.14.16-.32.37-.65.62-.99Z"/>
      <path class="cls-1" d="m129.96,159.65c-4.98.65-10.92,1.44-17.51,1.94,5.37-9.69,7.76-20.47,7.08-30.92,7.92-4.32,13.83-10.79,16.47-18.99.87-2.73,1.34-5.5,1.43-8.29,5.87-1.71,10.65-5.89,12.53-11.72,3.16-9.87-3.21-20.75-14.22-24.27-5.95-1.92-12.04-1.29-16.89,1.24-6.2-4.95-13.73-9.04-22.22-11.77-7.3-2.34-14.59-3.44-21.53-3.44h-.01c-2.6-4.24-6.86-7.7-12.22-9.42-11.02-3.53-22.51,1.6-25.67,11.47-1.42,4.39-.94,8.97.99,13.03h0c-2.41,2.98-4.27,6.34-5.46,10.03-1.9,5.9-1.89,12.08-.26,18.1-1.29,1.04-2.53,2.13-3.75,3.3-5.99,5.73-10.53,12.39-13.58,19.46C2.02,100.07-5.17,75.1,4.38,50.2,13.66,26,36.77,7.04,64.3,1.64c25.1-4.92,54.83,1.12,71.54,19.53,7.56,8.33,12.32,16.67,16.97,34.04,8.34,31.22,2.22,35.05,9.58,51.08,7.89,17.19,28.31,20.56,34.06,22.79,11.06,4.28-33.79,26.24-66.49,30.57Z"/>
      <g>
        <g>
          <path class="cls-5" d="m82.72,85.3c-.07,0-.13-.01-.21-.04h-.07s-.08-.02-.12-.04c-.03-.01-.06-.03-.11-.05.12.03.23.05.34.09.02,0,.04,0,.05.01.05.01.09.02.12.03Z"/>
          <path class="cls-3" d="m98.78,89.29s-.05.1-.06.14c-.05.1-.08.2-.12.3.19-.46.46-.94.8-1.43-.25.34-.46.67-.62.99Zm-.28.68h0s-.02.07-.02.09c0,.04-.03.07-.04.11-.1.22-.14.45-.12.7,0-.08.01-.16.03-.26.01-.03.01-.06.02-.09,0-.03.01-.06.01-.09.01-.05.02-.1.04-.16.03-.11.07-.23.11-.34-.01.02-.02.03-.03.04Zm-16.06-4.71s-.08-.02-.12-.04c-.03-.01-.06-.03-.11-.05l-.05-.02c-.33-.15-.69-.41-1.08-.75.37.4.71.73,1.04.94.13-.01.26-.04.38-.08h-.06Zm1.48-7.11c.51,2.02.57,4.04.18,5.47.2-.66.31-1.45.32-2.32v-.16c-.05-.97-.21-1.99-.5-2.99Z"/>
          <path class="cls-3" d="m84.1,83.62c-.02.07-.04.15-.07.22-.09.3-.2.56-.34.79-.27.48-.6.68-.97.67-.07,0-.13-.01-.21-.04h-.01c-.12.04-.25.07-.38.08.08.06.16.1.24.14.01.01.02.02.03.02.24.11.47.15.69.08.07-.03.15-.07.22-.12.13-.09.25-.22.36-.39.08-.12.16-.26.22-.41h.01s.05-.09.06-.14c.35-.83.52-1.96.47-3.22-.01.87-.12,1.66-.32,2.32Zm14.45,6.21s-.04.1-.05.14c.01-.01.02-.02.03-.04h0c.02-.07.04-.14.07-.2.04-.1.07-.2.12-.3-.07.14-.12.27-.17.4Z"/>
          <path class="cls-2" d="m135.74,67.4c-5.95-1.92-12.04-1.29-16.89,1.24-6.2-4.95-13.73-9.04-22.22-11.77-7.3-2.34-14.59-3.44-21.53-3.44h-.01c-2.6-4.24-6.86-7.7-12.22-9.42-11.02-3.53-22.51,1.6-25.67,11.47-1.42,4.39-.94,8.97.99,13.03h0c-2.41,2.98-4.27,6.34-5.46,10.03-1.9,5.9-1.89,12.08-.26,18.1-1.29,1.04-2.53,2.13-3.75,3.3-5.99,5.73-10.53,12.39-13.58,19.46,6.3,9.28,13.96,17.25,21.8,23.29,24.88,19.17,53.75,20.57,75.51,18.9,5.37-9.69,7.76-20.47,7.08-30.92,7.92-4.32,13.83-10.79,16.47-18.99.87-2.73,1.34-5.5,1.43-8.29,5.87-1.71,10.65-5.89,12.53-11.72,3.16-9.87-3.21-20.75-14.22-24.27Zm-37.3,22.77s.03-.07.04-.11c0-.02.01-.05.02-.08h0c.01-.05.02-.11.05-.15.05-.13.1-.26.17-.4,0-.04.04-.09.06-.14.16-.32.37-.65.62-.99h0c.12-.18.26-.35.41-.53h0c.15-.18.31-.36.47-.53,1.88-1.97,4.88-3.71,7.69-3.6.25.01.48.03.71.07,4.57.72,8.81,3.41,8.36,6.23-.07.43-.2.77-.41,1.04-.67.9-2.06,1.03-3.88.85-.99-.09-2.1-.27-3.31-.47-.32-.04-.64-.09-.97-.15-.84-.13-1.72-.15-2.61-.1h-.09c-2.75.16-5.47.88-6.71.5h-.03c-.25-.08-.45-.21-.56-.41-.04-.07-.07-.16-.09-.24-.03-.13-.03-.27-.01-.44-.01.03-.01.06-.02.09-.02.1-.03.18-.03.26-.02-.25.02-.48.12-.7Zm-56.58-28.29c-1.67-3.58,2.06-8.86,8.33-11.8,6.29-2.94,12.74-2.42,14.42,1.16.43.92.5,1.95.26,3.03-.69,3.11-3.95,6.58-8.59,8.77-5.14,2.39-10.4,2.49-13.06.49-.59-.45-1.05-1.01-1.36-1.65Zm14.57,64.3c-2.56,1.23-5.14,2.14-6.89,2.7-.35.1-.68.1-1,0-.5-.16-.91-.55-1.09-1.09-.27-.86.19-1.79,1.06-2.08.06-.02.11-.03.16-.04,1.68-.55,3.18-1.1,4.49-1.65,6.21-2.57,8.47-5.07,8.34-6.22-.12-1.09-1.19-2.59-1.88-2.88-5.9-2.47-12.39-.34-13.12-.09-.06.03-.12.04-.2.05-.8.19-1.63-.26-1.91-1.07-.3-.86.16-1.8,1.02-2.11,1.39-.47,8.59-2.73,15.49.17,2.07.87,3.69,3.59,3.9,5.57.38,3.62-3.94,6.64-8.37,8.73Zm10.61-34.39c-.04.79-.43,1.36-.94,1.43-.09,0-.18,0-.27-.02-.02-.01-.03-.01-.05-.02-2.09-.41-4.19-.6-6.26-.54-3.81.1-7.56,1.03-11.12,2.75-.61.29-1.3-.22-1.56-1.15-.25-.93.02-1.92.62-2.21.1-.05.19-.09.29-.14h.01c.75-.36,1.52-.68,2.28-.97,2.99-1.11,6.07-1.72,9.18-1.81.18-.01.35-.01.53-.01,2.03-.01,4.1.19,6.16.62.53.1.96.7,1.09,1.43.03.18.05.36.05.55,0,.02,0,.06,0,.09Zm1.3-6.18c-.04.1-.1.2-.16.29-.02.02-.03.05-.05.07-.46.65-1.09.93-1.56.72-.08-.05-.15-.09-.22-.15-.01-.03-.02-.04-.03-.05-1.55-1.46-3.23-2.73-5.02-3.78-3.29-1.93-6.95-3.13-10.89-3.56-.56-.07-.87-.65-.79-1.39.01-.13.04-.27.08-.41.28-.93,1.03-1.62,1.7-1.55.11.01.21.02.32.03h0c4.04.49,7.8,1.75,11.19,3.73.15.09.3.18.44.27,1.74,1.07,3.39,2.34,4.9,3.79.44.41.45,1.25.08,1.99Zm6.56-7.35c-1.02-.67-1.97-1.29-2.75-1.9-1.46-1.1-2.39-2.14-2.27-3.25.03-.34.16-.69.4-1.05,1.58-2.37,6.52-1.47,10.36,1.09.2.13.39.27.57.43,1.24,1.06,2.1,2.61,2.62,4.25.03.11.07.21.09.32.29,1,.45,2.02.5,2.99v.16c.05,1.26-.12,2.39-.47,3.22-.01.05-.04.1-.06.14h-.01c-.06.15-.14.29-.22.41-.11.17-.23.3-.36.39-.07.05-.15.09-.22.12-.22.07-.45.03-.69-.08-.01,0-.02-.01-.03-.02-.08-.04-.16-.08-.24-.14-.33-.21-.67-.54-1.04-.94-.94-1.02-2.04-2.51-3.31-3.83l-.07-.06c-.62-.64-1.28-1.23-1.99-1.7-.27-.19-.54-.36-.81-.55Zm4.84,19.25c-.31-.13-.61-.29-.89-.48-2.13-1.37-3.24-4.07-2.74-6.73.16-.81.94-1.35,1.76-1.2.81.15,1.35.93,1.19,1.75-.27,1.48.29,2.94,1.41,3.65,1.44.94,3.59.45,4.76-1.08.49-.66,1.44-.79,2.1-.29.04.03.08.07.11.11.57.29.9.94.78,1.61-.28,1.47.28,2.93,1.39,3.65,1.46.94,3.59.45,4.77-1.1.49-.65,1.44-.79,2.09-.28.67.51.79,1.44.29,2.11-1.9,2.5-5.2,3.4-7.87,2.27-.31-.13-.61-.29-.89-.48-1.35-.86-2.28-2.27-2.67-3.86-1.73.95-3.8,1.11-5.59.35Zm24.94,36.04c-.66.53-1.6.44-2.18-.14-.05-.05-.1-.1-.15-.16-.46-.59-4.73-5.89-11.05-7.03-.74-.14-2.46.54-3.15,1.39-.7.88-.22,3.98,3.22,9.15.88,1.34,1.96,2.82,3.28,4.42.04.04.07.08.1.13.58.7.48,1.75-.22,2.32-.44.38-1.02.47-1.54.31-.3-.09-.57-.28-.78-.53-1.31-1.61-3.28-4.16-4.89-6.92-2.3-3.95-3.87-8.34-1.75-10.96,1.27-1.56,4.1-2.96,6.31-2.57,7.39,1.31,12.2,7.12,13.1,8.27.56.73.42,1.76-.3,2.32Zm14.32-17c-.14.34-.39.69-.73.97-.74.61-1.59.64-1.93.06-1.82-3.24-4.18-5.98-7-8.16-.19-.16-.38-.3-.57-.44-1.52-1.12-3.18-2.1-4.95-2.9-.16-.08-.33-.15-.49-.23-.02,0-.04-.01-.06-.01-.09-.04-.16-.09-.23-.14-.38-.35-.37-1.04.05-1.72,0-.02.03-.05.04-.07.53-.8,1.45-1.25,2.07-.98,1.91.83,3.73,1.84,5.4,3.01.15.1.3.2.43.3.57.43,1.13.88,1.67,1.36,2.42,2.07,4.5,4.58,6.16,7.46h.01c.06.11.1.2.16.3.17.31.16.75-.03,1.19Zm6.65-11.69c-.04.16-.1.32-.17.47-.41.87-1.18,1.25-1.72.88-3.23-2.31-6.76-3.86-10.51-4.61-2.01-.41-4.12-.59-6.24-.53-.02.01-.04,0-.06.01-.09,0-.18-.01-.26-.04-.43-.13-.7-.6-.71-1.24,0-.1,0-.21.01-.33,0-.02.02-.06.01-.08.15-.96.8-1.75,1.46-1.76,2.1-.07,4.17.09,6.19.45.16.02.34.05.5.09,3.85.79,7.5,2.36,10.83,4.68h.01c.09.07.17.14.26.2.45.32.59,1.07.4,1.81Zm15.96-10.61c-1.41.89-3.23.87-5.16.09-2.64-1.04-5.47-3.48-7.59-6.89-2.69-4.24-3.59-8.79-2.61-11.78.37-1.15,1.02-2.06,1.94-2.64,3.34-2.11,9.05.93,12.75,6.78,3.71,5.87,4,12.33.67,14.44Z"/>
        </g>
        <path class="cls-1" d="m64.87,54.27c-.69,3.11-3.95,6.58-8.59,8.77-5.14,2.39-10.4,2.49-13.06.49-.59-.45-1.05-1.01-1.36-1.65-1.67-3.58,2.06-8.86,8.33-11.8,6.29-2.94,12.74-2.42,14.42,1.16.43.92.5,1.95.26,3.03Z"/>
        <path class="cls-5" d="m82.72,85.3c-.07,0-.13-.01-.21-.04h-.07s-.08-.02-.12-.04c-.03-.01-.06-.03-.11-.05.12.03.23.05.34.09.02,0,.04,0,.05.01.05.01.09.02.12.03Z"/>
        <path class="cls-1" d="m141.61,94.25c-1.41.89-3.23.87-5.16.09-2.64-1.04-5.47-3.48-7.59-6.89-2.69-4.24-3.59-8.79-2.61-11.78.37-1.15,1.02-2.06,1.94-2.64,3.34-2.11,9.05.93,12.75,6.78,3.71,5.87,4,12.33.67,14.44Z"/>
        <path class="cls-1" d="m56.43,126.18c-2.56,1.23-5.14,2.14-6.89,2.7-.35.1-.68.1-1,0-.5-.16-.91-.55-1.09-1.09-.27-.86.19-1.79,1.06-2.08.06-.02.11-.03.16-.04,1.68-.55,3.18-1.1,4.49-1.65,6.21-2.57,8.47-5.07,8.34-6.22-.12-1.09-1.19-2.59-1.88-2.88-5.9-2.47-12.39-.34-13.12-.09-.06.03-.12.04-.2.05-.8.19-1.63-.26-1.91-1.07-.3-.86.16-1.8,1.02-2.11,1.39-.47,8.59-2.73,15.49.17,2.07.87,3.69,3.59,3.9,5.57.38,3.62-3.94,6.64-8.37,8.73Z"/>
        <path class="cls-1" d="m104.68,133.55c-.66.53-1.6.44-2.18-.14-.05-.05-.1-.1-.15-.16-.46-.59-4.73-5.89-11.05-7.03-.74-.14-2.46.54-3.15,1.39-.7.88-.22,3.98,3.22,9.15.88,1.34,1.96,2.82,3.28,4.42.04.04.07.08.1.13.58.7.48,1.75-.22,2.32-.44.38-1.02.47-1.54.31-.3-.09-.57-.28-.78-.53-1.31-1.61-3.28-4.16-4.89-6.92-2.3-3.95-3.87-8.34-1.75-10.96,1.27-1.56,4.1-2.96,6.31-2.57,7.39,1.31,12.2,7.12,13.1,8.27.56.73.42,1.76-.3,2.32Z"/>
        <g>
          <path class="cls-1" d="m117.04,89.94c-.07.43-.2.77-.41,1.04-.67.9-2.06,1.03-3.88.85-.99-.09-2.1-.27-3.31-.47-.32-.04-.64-.09-.97-.15-.84-.13-1.72-.15-2.61-.1h-.09c-2.75.16-5.47.88-6.71.5h-.03c-.25-.08-.45-.21-.56-.41-.04-.07-.07-.16-.09-.24-.03-.13-.03-.27-.01-.44,0-.03.01-.06.01-.09.01-.05.02-.1.04-.16.03-.11.07-.23.11-.34h0c.02-.07.04-.14.07-.2.19-.46.46-.94.8-1.43h0c.13-.18.27-.36.41-.53h0c.15-.18.31-.36.47-.53,1.88-1.97,4.88-3.71,7.69-3.6.25.01.48.03.71.07,4.57.72,8.81,3.41,8.36,6.23Z"/>
          <path class="cls-4" d="m99.4,88.3c-.34.49-.61.97-.8,1.43-.03.06-.05.13-.07.19h0c-.04.12-.08.24-.11.35.01-.03.01-.07.02-.1.01-.04.03-.07.04-.11,0-.02.01-.05.02-.08h0c.01-.05.02-.11.05-.15.05-.13.1-.26.17-.4,0-.04.04-.09.06-.14.16-.32.37-.65.62-.99Z"/>
        </g>
        <path class="cls-1" d="m125.65,104.86c-.04.16-.1.32-.17.47-.41.87-1.18,1.25-1.72.88-3.23-2.31-6.76-3.86-10.51-4.61-2.01-.41-4.12-.59-6.24-.53-.02.01-.04,0-.06.01-.09,0-.18-.01-.26-.04-.43-.13-.7-.6-.71-1.24,0-.1,0-.21.01-.33,0-.02.02-.06.01-.08.15-.96.8-1.75,1.46-1.76,2.1-.07,4.17.09,6.19.45.16.02.34.05.5.09,3.85.79,7.5,2.36,10.83,4.68h.01c.09.07.17.14.26.2.45.32.59,1.07.4,1.81Z"/>
        <path class="cls-1" d="m119,116.55c-.14.34-.39.69-.73.97-.74.61-1.59.64-1.93.06-1.82-3.24-4.18-5.98-7-8.16-.19-.16-.38-.3-.57-.44-1.52-1.12-3.18-2.1-4.95-2.9-.16-.08-.33-.15-.49-.23-.02,0-.04-.01-.06-.01-.09-.04-.16-.09-.23-.14-.38-.35-.37-1.04.05-1.72,0-.02.03-.05.04-.07.53-.8,1.45-1.25,2.07-.98,1.91.83,3.73,1.84,5.4,3.01.15.1.3.2.43.3.57.43,1.13.88,1.67,1.36,2.42,2.07,4.5,4.58,6.16,7.46h.01c.06.11.1.2.16.3.17.31.16.75-.03,1.19Z"/>
        <path class="cls-1" d="m68.34,85.61c-.04.1-.1.2-.16.29-.02.02-.03.05-.05.07-.46.65-1.09.93-1.56.72-.08-.05-.15-.09-.22-.15-.01-.03-.02-.04-.03-.05-1.55-1.46-3.23-2.73-5.02-3.78-3.29-1.93-6.95-3.13-10.89-3.56-.56-.07-.87-.65-.79-1.39.01-.13.04-.27.08-.41.28-.93,1.03-1.62,1.7-1.55.11.01.21.02.32.03h0c4.04.49,7.8,1.75,11.19,3.73.15.09.3.18.44.27,1.74,1.07,3.39,2.34,4.9,3.79.44.41.45,1.25.08,1.99Z"/>
        <path class="cls-1" d="m67.05,91.7s0,.06,0,.09c-.04.79-.43,1.36-.94,1.43-.09,0-.18,0-.27-.02-.02-.01-.03-.01-.05-.02-2.09-.41-4.19-.6-6.26-.54-3.81.1-7.56,1.03-11.12,2.75-.61.29-1.3-.22-1.56-1.15-.25-.93.02-1.92.62-2.21.1-.05.19-.09.29-.14h.01c.75-.36,1.52-.68,2.28-.97,2.99-1.11,6.07-1.72,9.18-1.81.18-.01.35-.01.53-.01,2.03-.01,4.1.19,6.16.62.53.1.96.7,1.09,1.43.03.18.05.36.05.55Z"/>
        <path class="cls-1" d="m96.76,99.23c-1.9,2.5-5.2,3.4-7.87,2.27-.31-.13-.61-.29-.89-.48-1.35-.86-2.28-2.27-2.67-3.86-1.73.95-3.8,1.11-5.59.35-.31-.13-.61-.29-.89-.48-2.13-1.37-3.24-4.07-2.74-6.73.16-.81.94-1.35,1.76-1.2.81.15,1.35.93,1.19,1.75-.27,1.48.29,2.94,1.41,3.65,1.44.94,3.59.45,4.76-1.08.49-.66,1.44-.79,2.1-.29.04.03.08.07.11.11.57.29.9.94.78,1.61-.28,1.47.28,2.93,1.39,3.65,1.46.94,3.59.45,4.77-1.1.49-.65,1.44-.79,2.09-.28.67.51.79,1.44.29,2.11Z"/>
        <g>
          <path class="cls-1" d="m84.1,83.62c-.02.07-.04.15-.07.22-.09.3-.2.56-.34.79-.27.48-.6.68-.97.67-.03-.01-.07-.02-.12-.03-.01-.01-.03-.01-.05-.01-.11-.04-.22-.06-.34-.09l-.05-.02c-.33-.15-.69-.41-1.08-.75-.94-1.02-2.04-2.51-3.31-3.83l-.07-.06c-.62-.64-1.28-1.23-1.99-1.7-.27-.19-.54-.36-.81-.55-1.02-.67-1.97-1.29-2.75-1.9-1.46-1.1-2.39-2.14-2.27-3.25.03-.34.16-.69.4-1.05,1.58-2.37,6.52-1.47,10.36,1.09.2.13.39.27.57.43,1.24,1.06,2.1,2.61,2.62,4.25.03.11.07.21.09.32.51,2.02.57,4.04.18,5.47Z"/>
          <path class="cls-4" d="m84.42,81.14v.16c.05,1.26-.12,2.39-.47,3.22-.01.05-.04.1-.06.14h-.01c-.06.15-.14.29-.22.41-.11.17-.23.3-.36.39-.07.05-.15.09-.22.12-.22.07-.45.03-.69-.08-.01,0-.02-.01-.03-.02-.08-.04-.16-.08-.24-.14-.33-.21-.67-.54-1.04-.94.39.34.75.6,1.08.75l.05.02c.12.03.23.05.34.09.02,0,.04,0,.05.01.05.01.09.02.12.03.37.01.7-.19.97-.67.14-.23.25-.49.34-.79.03-.07.05-.15.07-.22.39-1.43.33-3.45-.18-5.47.29,1,.45,2.02.5,2.99Z"/>
        </g>
      </g>
    </g>
  </g>
</svg>