<svg width="930" height="1029" viewBox="0 0 930 1029" fill="none" xmlns="http://www.w3.org/2000/svg">
<path d="M612.72 127.702C584.049 133.597 560.686 150.158 546.782 171.592C510.21 165.695 470.202 166.378 429.421 174.788C394.398 182.041 362.17 194.288 333.922 210.251C313.625 199.021 288.334 194.74 262.577 200.067C209.616 210.969 174.622 258.333 184.409 305.731C188.768 326.85 201.31 344.46 218.47 356.494C215.439 374.088 215.554 391.984 219.242 409.777C225.074 438.12 239.302 463.132 259.71 483.953C256.867 491.093 254.331 498.478 252.074 505.946C238.048 552.364 236.635 599.39 245.78 642.862C304.98 682.78 370.822 708.783 430.563 720.568C537.748 741.721 631.93 718.428 709.108 682.844C714.211 671.626 718.632 659.897 722.302 647.752C746.597 567.225 733.05 484.875 692.147 422.221C714.458 386.453 723.617 346.564 715.511 307.214C712.788 294.168 708.307 281.771 702.235 270.227C722.235 249.795 732.101 221.81 726.299 193.744C716.557 146.322 665.656 116.754 612.72 127.702ZM525.185 288.693C521.965 280.067 528.206 260.166 540.528 251.28C542.291 249.984 544.175 248.915 546.23 248.164C562.325 242.168 580.924 243.135 584.596 253.04C588.314 262.922 575.297 266.8 559.272 272.818C558.335 273.144 557.423 273.516 556.559 273.979C541.577 280.959 528.726 298.026 525.185 288.693ZM218.155 320.981C203.11 310.271 206.134 280.221 224.927 253.827C243.744 227.477 271.16 214.768 286.181 225.433C290.067 228.205 292.741 232.211 294.198 237.221C298.592 251.419 293.321 273.022 279.365 292.612C263.966 314.204 242.84 326.641 227.438 324.544C223.989 324.113 220.886 322.91 218.155 320.981ZM338.938 334.318C338.763 334.646 338.448 334.932 338.13 335.102C337.584 335.395 336.893 335.414 336.307 335.085C327.47 330.171 318.077 327.603 309.15 327.65C289.494 327.659 277.455 340.021 273.198 345.287C272.554 346.158 271.335 346.286 270.508 345.617C269.637 344.973 269.51 343.754 270.178 342.928C274.789 337.122 287.815 323.763 309.178 323.775C318.706 323.756 328.773 326.489 338.172 331.687C339.086 332.192 339.419 333.358 338.938 334.318ZM270.031 385.766C269.117 385.261 268.784 384.095 269.265 383.135C270.47 380.909 272.433 377.693 275.283 374.059C281.116 366.604 290.64 357.52 304.836 352.893C314.3 349.808 324.639 349.12 334.725 350.908C335.769 351.108 336.49 352.126 336.289 353.169C336.144 353.773 335.766 354.268 335.266 354.536C334.903 354.731 334.49 354.835 334.026 354.733C324.565 353.02 314.893 353.643 306.047 356.572C294.253 360.438 285.871 367.506 280.333 373.984C276.535 378.36 274.089 382.42 272.663 384.999C272.158 385.913 270.991 386.246 270.031 385.766ZM398.371 546.901C397.521 547.825 396.716 548.725 395.932 549.555C395.575 549.98 395.124 550.339 394.624 550.607C392.715 551.63 390.33 551.329 388.649 549.832C387.346 548.601 386.836 546.885 387.066 545.241C387.246 544.267 387.681 543.332 388.374 542.551C388.486 542.433 388.598 542.314 388.71 542.196C420.069 508.245 428.585 484.727 423.228 477.246C419.912 472.589 411.347 468.29 406.564 468.865C375.775 472.445 353.783 496.693 351.347 499.462C351.19 499.605 351.078 499.723 350.92 499.866C349.031 501.581 346.08 501.642 344.071 499.97C341.941 498.07 341.71 494.801 343.611 492.671C347.944 487.657 371.481 462.58 405.327 458.59C413.813 457.609 426.116 463.531 431.594 471.24C445.383 490.521 414.815 528.785 398.371 546.901ZM407.583 315.124C407.362 315.476 407.047 315.762 406.683 315.957C405.865 316.395 404.849 316.355 404.026 315.802C395.09 309.83 385.495 305.03 375.405 301.49C372.631 300.462 369.814 299.574 366.931 298.78C352.724 294.873 337.988 293.472 323.279 294.631C321.829 294.765 320.599 293.67 320.49 292.266C320.381 290.862 321.452 289.586 322.856 289.476C338.187 288.276 353.502 289.776 368.313 293.827C371.057 294.579 373.803 295.446 376.484 296.407C387.247 300.113 397.404 305.197 406.905 311.568C408.081 312.342 408.402 313.924 407.583 315.124ZM393.624 288.213C387.693 288.175 382.203 288.194 377.58 287.865C368.748 287.218 362.969 285.169 363.028 278.293C363.095 272.525 368.287 267.694 375.813 264.595C381.968 261.997 389.679 260.554 397.432 260.609C414.531 260.743 431.091 280.936 431.022 291.502C430.928 302.023 410.768 288.322 393.624 288.213ZM468.619 349.845C460.779 351.592 452.282 349.713 445.264 344.701C444.065 343.881 443.834 342.25 444.632 341.12C445.476 339.966 447.059 339.644 448.213 340.487C454.1 344.702 461.135 346.253 467.438 344.804C471.886 343.824 475.418 341.462 477.107 338.392C478.005 336.683 478.378 335.196 478.35 333.397C478.326 333.352 478.301 333.307 478.323 333.237C477.924 331.403 477.708 329.471 477.44 327.334C477.461 327.264 477.412 327.173 477.434 327.104C476.956 324.903 476.49 322.287 476.101 319.161C471.039 319.652 466.543 318.904 463.682 317.279C461.969 316.267 460.802 314.962 460.48 313.38C459.487 308.472 466.595 302.848 476.413 300.86C486.206 298.827 494.947 301.161 495.985 306.044C496.604 309.163 493.999 312.49 489.503 315.018C487.213 316.421 484.36 317.541 481.198 318.3C481.317 318.412 481.32 318.527 481.369 318.618C481.936 321.531 482.259 323.99 482.531 326.243C482.558 326.403 482.586 326.564 482.614 326.725C483.043 328.834 483.35 330.717 483.493 332.512C483.964 334.482 484.589 336.194 485.791 337.89C487.811 340.785 491.558 342.753 496.027 343.341C502.508 344.078 509.319 341.83 514.721 337.062C515.802 336.132 517.443 336.246 518.349 337.282C519.279 338.362 519.21 339.979 518.129 340.909C516.261 342.554 514.225 343.996 512.135 345.117C506.862 347.944 501.059 349.125 495.409 348.41C489.505 347.656 484.492 344.962 481.608 340.893C480.048 343.659 477.599 345.967 474.508 347.624C472.736 348.574 470.751 349.346 468.665 349.821L468.619 349.845ZM630.573 442.597C629.534 445.026 626.961 446.229 624.448 445.471C624.312 445.544 624.078 445.435 623.844 445.327C618.334 443.016 589.392 432.034 560.769 442.057C556.292 443.638 550.466 451.324 549.494 456.934C547.953 466.066 565.979 483.427 608.995 500.141C609.134 500.184 609.298 500.271 609.438 500.313C609.881 500.485 610.233 500.706 610.61 500.972C612.493 502.302 613.278 504.747 612.418 506.963C611.944 508.153 611.094 509.077 610.048 509.637C608.73 510.344 607.235 510.502 605.766 509.944C603.853 509.215 601.753 508.352 599.488 507.402L599.442 507.427C576.076 497.785 535.546 477.631 539.341 455.241C540.921 445.854 549.338 435.141 557.38 432.351C589.543 421.074 621.703 433.255 627.82 435.825C630.458 436.926 631.675 439.959 630.573 442.597ZM572.52 284.433C571.884 284.774 571.248 285.115 570.636 285.502C559.325 291.799 549.167 299.702 540.229 309.115C539.267 310.157 537.608 310.228 536.565 309.266C535.568 308.279 535.498 306.621 536.485 305.624C545.175 296.402 555.102 288.506 565.997 282.198C567.336 281.421 568.721 280.62 570.085 279.889L570.221 279.816C583.765 272.555 598.349 267.778 613.605 265.566C615.006 265.341 616.303 266.342 616.527 267.743C616.696 268.822 616.104 269.9 615.195 270.387C614.922 270.534 614.625 270.634 614.349 270.665C599.691 272.792 585.656 277.391 572.657 284.36L572.52 284.433ZM614.178 302.87C613.743 303.806 612.555 304.209 611.595 303.729C610.66 303.294 610.257 302.106 610.737 301.147C610.825 300.983 610.934 300.749 611.046 300.63C615.716 291.224 622.301 283.424 629.946 278.038C647.478 265.773 665.779 269.24 672.805 271.323C673.828 271.593 674.413 272.684 674.096 273.731C673.949 274.219 673.592 274.645 673.137 274.888C672.728 275.108 672.201 275.215 671.688 275.022C665.174 273.133 648.218 269.881 632.112 281.206C625.282 286.037 619.408 292.872 615.051 301.115C614.721 301.702 614.437 302.263 614.132 302.895L614.178 302.87ZM697.537 306.321C697.341 306.719 697.071 306.981 696.707 307.176C696.207 307.444 695.516 307.463 694.954 307.18C688.426 303.953 671.134 297.02 651.327 303.076C642.384 305.823 634.083 310.858 627.333 317.695C626.57 318.455 625.393 318.442 624.633 317.68C623.873 316.917 623.862 315.695 624.579 314.959C631.802 307.694 640.669 302.297 650.161 299.373C671.342 292.931 689.729 300.271 696.679 303.74C697.639 304.22 698.017 305.362 697.537 306.321ZM698.255 223.401C694.55 230.243 687.1 234.354 677.517 235.689C664.371 237.472 647.314 233.924 630.777 225.124C610.137 214.02 596.035 197.539 593.112 183.137C591.988 177.657 592.533 172.451 594.92 167.954C603.686 151.673 633.888 150.924 662.398 166.231C690.979 181.56 706.976 207.144 698.255 223.401Z" fill="#4C5467"/>
<path d="M536.443 407.315C536.443 407.315 536.393 407.32 536.367 407.322C536.055 407.247 535.757 407.324 535.522 407.548C531.235 409.168 526.831 410.619 522.442 411.942C513.366 414.666 494.311 419.4 468.777 420.726C453.02 421.534 436.908 420.895 420.873 418.799C420.229 418.702 419.722 419.306 419.716 420.122C419.726 420.528 419.837 420.926 420.065 421.212C420.087 421.464 420.159 421.713 420.308 421.954C425.865 431.453 432.344 438.376 439.621 442.48C447.034 446.674 451.764 446.06 464.399 444.454C468.174 443.974 472.881 443.387 478.582 442.815C487.234 441.937 493.591 441.589 498.705 441.298C503.871 441.002 507.544 440.811 510.622 440.212C514.276 439.513 517.042 438.255 520.38 435.673C527.607 430.107 533.246 421.495 537.166 410.079C537.569 409.738 537.714 409.064 537.531 408.418C537.352 407.822 536.909 407.402 536.473 407.364L536.443 407.315ZM519.005 433.018C513.33 437.406 509.533 437.634 498.314 438.251C493.199 438.542 486.817 438.893 478.115 439.775C472.414 440.347 467.683 440.961 463.881 441.418C451.699 442.959 447.143 443.533 440.294 439.672C433.9 436.077 428.115 430.112 423.082 421.968C438.489 423.864 453.956 424.406 469.08 423.628C482.633 422.935 494.372 421.279 503.78 419.444C512.24 417.819 518.83 416.05 523.145 414.759C526.792 413.678 530.453 412.469 534.029 411.166C530.334 420.78 525.295 428.092 518.998 432.942L519.005 433.018Z" fill="#0D0D0D"/>
<path d="M461.543 410.634C461.543 410.634 461.492 410.638 461.467 410.64C461.417 410.644 461.366 410.649 461.316 410.653C461.215 410.662 461.114 410.671 461.031 410.602C461.185 410.614 461.364 410.624 461.541 410.608L461.543 410.634Z" fill="#0D0D0D"/>
<path d="M535.742 398.667C535.653 398.522 533.733 395.455 529.944 394.307C527.748 393.632 523.828 394.201 519 395.46C518.25 393.26 517.383 391.196 516.226 390.176C515.124 389.202 514.186 388.953 512.157 388.442L511.662 388.306C511.219 388.192 510.446 388.081 509.492 387.935C508.176 387.718 506.577 387.475 505.378 387.146C503.667 385.614 501.007 385.743 500.729 385.767C498.937 385.643 497.677 386.083 496.973 387.061C496.881 387.171 496.814 387.278 496.751 387.436C494.877 387.243 491.564 387.479 489.514 388.192C489.284 387.881 489.06 387.646 488.842 387.486C487.831 386.683 486.572 386.538 484.988 387.057C484.71 387.081 483.863 387.282 482.986 387.74C481.864 387.125 479.393 385.913 477.737 386.184C476.683 386.352 475.251 387.444 474.138 388.406C473.444 388.034 472.639 387.849 471.774 387.848C471.283 387.763 468.998 387.529 467.563 388.875C465.981 387.943 463.686 387.888 463.661 387.89C462.288 387.907 460.501 389.31 459.321 390.66C458.631 389.753 457.544 388.956 455.813 388.648C455.18 388.397 452.584 387.502 451.031 388.961C450.653 389.299 450.221 389.897 450.05 390.854C448.569 390.499 446.225 390.168 444.596 391.047C443.285 391.772 441.284 393.932 440.4 395.18C439.592 395.25 438.673 395.508 437.661 395.876C434.703 396.973 428.719 402.203 424.504 406.693C424.125 406.726 423.794 406.73 423.464 406.733C422.171 406.794 418.705 407.019 417.39 410.341C416.683 412.159 416.758 414.495 417.665 417.319C417.912 418.112 418.585 418.538 419.176 418.308C419.764 418.053 420.023 417.216 419.776 416.423C419.148 414.466 419.041 412.947 419.459 411.893C420.229 409.916 422.912 409.76 423.798 409.708C428.126 409.434 434.691 409.73 442.277 410.065C442.303 410.062 442.328 410.06 442.378 410.056C442.378 410.056 442.454 410.049 442.505 410.045C442.505 410.045 442.505 410.045 442.53 410.043C444.905 410.142 447.409 410.256 449.935 410.342C449.986 410.338 450.036 410.333 450.061 410.331C450.061 410.331 450.112 410.327 450.162 410.322C450.188 410.32 450.213 410.318 450.263 410.313C453.763 410.468 457.384 410.561 460.949 410.583L460.974 410.58C461.125 410.567 461.304 410.577 461.483 410.587C463.546 410.612 465.58 410.588 467.561 410.543C467.561 410.543 467.586 410.541 467.611 410.539C467.687 410.532 467.763 410.526 467.839 410.519C471.089 410.441 474.255 410.268 477.207 409.986C477.207 409.986 477.258 409.982 477.308 409.977L477.384 409.971C479.655 409.748 481.816 409.433 483.791 409.033L483.842 409.028C486.341 408.506 489.273 407.691 492.449 406.753C495.895 405.716 499.609 404.528 503.245 403.321C508.391 401.627 513.858 399.828 518.559 398.58C523.508 397.259 527.592 396.522 529.551 397.116C532.426 397.987 533.863 400.179 533.897 400.278C534.636 401.462 535.096 402.949 535.245 404.668C535.318 405.502 535.882 406.14 536.52 406.161C536.57 406.157 536.621 406.152 536.671 406.148C537.223 406.049 537.599 405.405 537.534 404.647C537.332 402.322 536.695 400.264 535.658 398.572L535.742 398.667ZM460.587 393.809C460.587 393.809 460.569 393.607 460.56 393.506C461.426 392.336 463.178 390.835 463.968 390.842C464.654 390.834 465.771 391.093 466.454 391.34C466.388 391.753 466.375 392.187 466.442 392.665C466.551 393.928 466.625 395.068 466.641 396.136C465.588 396.023 464.418 396.023 464.241 396.038C463.199 396.052 461.891 396.522 460.962 396.96C460.851 395.976 460.736 394.942 460.612 393.807L460.587 393.809ZM445.726 393.801C446.844 393.195 448.83 393.506 449.999 393.786C450.011 395.389 449.905 396.799 449.791 398.133C448.13 398.048 445.966 398.618 444.257 399.454C444.033 398.047 443.627 396.886 443.086 396.22C443.895 395.284 444.971 394.197 445.726 393.801ZM441.58 407.019C436.651 406.81 432.181 406.613 428.491 406.602C432.405 402.748 436.55 399.486 438.545 398.727C439.704 398.296 440.452 398.129 440.909 398.115C441.086 398.099 441.217 398.139 441.32 398.155C441.476 398.193 441.556 398.237 441.586 398.285C442.14 399.103 442.585 403.647 441.555 407.021L441.58 407.019ZM449.445 401.473C449.247 403.298 449.029 405.176 448.935 407.322C447.276 407.263 445.642 407.201 444.084 407.133C444.395 405.731 444.541 404.19 444.538 402.688C445.985 401.773 448.097 401.183 449.515 401.11C449.501 401.239 449.485 401.342 449.47 401.471L449.445 401.473ZM458.247 393.529C458.26 393.68 458.271 393.807 458.277 393.883C458.675 397.871 459.064 400.893 459.376 403.31C459.592 404.921 459.763 406.306 459.902 407.618C457.024 407.588 454.119 407.534 451.26 407.426C451.377 405.557 451.542 403.939 451.749 402.215C451.818 401.547 451.887 400.879 451.98 400.184C451.975 400.133 451.971 400.082 451.992 400.03C452.216 397.922 452.372 395.617 452.307 392.822C452.301 392.746 452.296 392.696 452.29 392.62C452.283 392.544 452.277 392.468 452.27 392.393C452.238 391.733 452.398 391.516 452.54 391.402C453.176 390.812 454.763 391.209 455.448 391.48C455.503 391.526 455.553 391.522 455.606 391.543L455.787 391.578C457.363 391.849 457.936 392.588 458.142 393.207C458.142 393.207 458.151 393.308 458.156 393.358C458.16 393.409 458.164 393.46 458.167 393.485L458.171 393.535L458.247 393.529ZM466.535 401.95C466.459 403.713 466.415 405.55 466.441 407.611C465.043 407.63 463.62 407.652 462.195 407.648C462.07 406.208 461.867 404.749 461.649 403.113C461.54 402.154 461.402 401.148 461.282 400.063C462.209 399.601 463.556 399 464.472 398.997C465.234 398.982 466.028 399.04 466.643 399.089C466.623 400.033 466.578 400.979 466.558 401.922L466.535 401.95ZM474.559 392.673C474.97 395.056 475.202 397.149 475.344 399.072C475.344 399.072 475.346 399.097 475.348 399.123L475.353 399.173C475.478 400.614 475.52 401.985 475.605 403.25C475.677 404.67 475.764 405.961 475.867 407.149C473.594 407.346 471.188 407.479 468.753 407.563C468.721 405.732 468.783 404.097 468.84 402.412C468.898 401.032 468.952 399.601 468.945 398.049C468.945 398.049 468.936 397.948 468.934 397.923C468.931 397.897 468.929 397.872 468.927 397.847C468.917 396.269 468.871 394.567 468.677 392.623C468.64 392.194 468.696 391.96 468.754 391.751C468.752 391.726 468.775 391.698 468.796 391.645C468.84 391.565 468.863 391.538 468.909 391.483C469.55 390.663 471.235 390.721 471.776 390.801C471.827 390.797 471.955 390.811 472.006 390.807C472.896 390.806 473.476 391.036 473.833 391.336C474.379 391.772 474.483 392.374 474.507 392.652L474.559 392.673ZM481.769 401.57C481.892 402.985 482.017 404.425 482.308 406.31C480.981 406.552 479.598 406.749 478.138 406.926C478.043 405.84 477.968 404.675 477.902 403.331C477.842 402.343 477.8 401.278 477.724 400.113C478.805 399.663 480.678 399.551 481.614 399.775C481.666 400.382 481.715 400.938 481.767 401.544L481.769 401.57ZM480.977 389.799C480.456 390.837 480.338 392.12 480.608 393.472C480.872 394.747 481.067 395.825 481.201 396.781C479.99 396.606 478.576 396.729 477.436 397.083C477.283 395.619 477.069 394.034 476.794 392.326C476.682 391.623 476.471 390.954 476.17 390.42C477.43 389.394 477.996 389.166 478.296 389.115C478.923 389.009 479.971 389.351 480.974 389.774L480.977 389.799ZM490.951 404.159C488.644 404.843 486.482 405.438 484.559 405.86C484.334 404.148 484.218 402.808 484.081 401.522C483.875 399.146 483.682 396.922 482.857 392.996C482.733 392.447 482.772 392.011 482.966 391.612C483.508 390.521 485.121 390.05 485.624 389.981C485.674 389.977 485.798 389.94 485.847 389.911C487.108 389.496 487.667 389.778 487.861 389.965C487.971 390.057 488.166 390.244 488.264 390.796C488.647 392.57 488.954 394.046 489.242 395.319C490.137 399.468 490.594 401.516 490.951 404.159ZM493.157 403.484C493.019 402.477 492.86 401.523 492.646 400.524C492.999 400.493 493.351 400.437 493.7 400.356C495.152 400.077 496.659 399.564 497.809 399.031C497.929 399.53 498.021 400.006 498.136 400.454C498.228 400.93 498.343 401.378 498.433 401.829C496.65 402.391 494.867 402.953 493.132 403.486L493.157 403.484ZM497.243 396.025C495.952 396.697 493.702 397.453 492.059 397.57C491.885 396.745 491.678 395.821 491.461 394.796C491.211 393.672 490.95 392.421 490.621 390.973C492.284 390.498 494.936 390.267 496.496 390.361C496.685 392.534 496.948 394.396 497.243 396.025ZM502.566 400.477C501.922 400.686 501.279 400.894 500.635 401.103C500.549 400.703 500.464 400.303 500.376 399.878C499.76 397.182 499.063 394.136 498.738 389.505C498.733 389.454 498.729 389.404 498.727 389.378C498.727 389.378 498.724 389.353 498.722 389.328C498.72 389.302 498.722 389.328 498.72 389.302C498.716 389.252 498.764 389.222 498.764 389.222C498.831 389.115 499.274 388.643 500.884 388.733C500.91 388.73 501.038 388.745 501.063 388.743C501.998 388.661 503.544 388.884 504.237 389.536C504.292 389.583 504.321 389.631 504.378 389.702C504.492 389.845 504.529 389.969 504.544 390.146C504.814 393.255 505.228 394.797 505.635 396.264C505.863 397.136 506.117 398.005 506.325 399.234C505.064 399.649 503.827 400.062 502.54 400.479L502.566 400.477ZM508.554 398.532C508.318 397.279 508.061 396.359 507.837 395.538C507.463 394.17 507.129 392.952 506.909 390.425C507.79 390.603 508.717 390.726 509.517 390.86C510.343 390.992 511.141 391.101 511.506 391.197L512.001 391.332C513.952 391.825 514.475 391.983 515.11 392.565C515.716 393.098 516.371 394.772 516.811 396.032C514.251 396.738 511.45 397.593 508.58 398.529L508.554 398.532Z" fill="#0D0D0D"/>
<path d="M601.73 701.358C601.73 701.358 601.316 701.152 601.109 700.945C600.281 700.531 599.556 699.806 599.039 698.875C599.97 699.599 600.591 700.117 601.109 700.738L601.73 701.358Z" fill="#1D1D1B"/>
<path d="M919.37 801.425C907.367 784.351 886.464 776.797 866.079 780.315C833.173 723.299 790.644 677.458 736.007 640.31C604.176 550.594 420.607 540.143 268.494 613.509C157.773 667.007 90.2022 758.481 58.8484 810.22C37.6354 808.151 16.8364 817.774 6.38511 836.504C-7.9983 862.166 2.76339 895.59 30.185 910.904C39.2911 915.871 49.2249 918.458 59.2623 918.458C59.9866 918.458 60.711 918.458 61.4353 918.355C64.8501 918.251 68.3683 917.837 71.7831 917.113C72.197 917.113 72.5074 917.009 72.9214 916.906C78.3022 915.561 83.3726 913.491 87.8222 910.697C91.7543 910.18 96.4108 908.524 102.206 906.558C113.071 902.833 126.626 898.073 140.803 898.797C158.394 899.522 183.229 908.524 188.61 911.525C188.92 911.629 189.127 911.732 189.437 911.836C189.541 911.939 189.748 911.939 189.851 912.042C199.785 917.009 210.34 919.389 220.584 919.389C230.829 919.389 239.935 917.32 248.627 913.181C248.834 913.181 249.041 913.077 249.248 912.974H249.351C249.351 912.974 250.696 912.663 251.524 912.353C259.906 910.076 285.258 903.143 310.92 904.075C327.684 904.799 356.244 914.836 364.522 918.458C365.039 918.665 365.453 918.872 365.867 919.079C366.281 919.286 366.591 919.493 367.005 919.493C376.008 923.735 385.735 925.805 395.462 925.805C401.05 925.805 406.741 925.184 412.225 923.735C418.123 922.183 423.608 920.01 428.575 917.009C429.092 916.699 429.713 916.389 430.437 915.975C440.682 910.076 467.793 895.693 488.074 895.072C502.975 894.762 523.36 904.282 530.914 907.903C532.466 908.628 533.605 909.145 534.329 909.456C534.536 909.559 534.639 909.559 534.846 909.663C544.263 914.216 554.404 916.492 564.648 916.492C570.236 916.492 575.927 915.871 581.411 914.422C590.31 912.146 598.278 908.11 605.211 902.729C629.218 885.035 668.333 896.831 681.164 900.763C682.716 901.177 684.061 901.591 684.889 901.798C685.096 901.798 685.2 901.798 685.407 901.798C689.235 903.247 693.271 904.282 697.514 904.902C700.928 905.42 704.343 905.627 707.758 905.627C721.003 905.627 733.938 901.695 745.424 894.348C745.424 894.244 745.527 894.244 745.527 894.244C745.941 893.934 746.562 893.623 747.286 893.106C754.633 888.863 775.95 879.033 791.885 876.757C806.062 874.79 819.824 877.998 831 880.689C837.002 882.137 841.969 883.069 845.797 883.276C848.591 884.621 851.489 885.656 854.386 886.38C857.697 887.415 861.215 888.036 864.734 888.243C866.182 888.346 867.631 888.45 869.183 888.45C880.773 888.45 892.673 885.035 903.124 877.688C915.541 869.099 924.13 856.371 927.234 841.988C930.339 827.501 927.545 813.118 919.37 801.321V801.425ZM174.537 748.548C167.293 748.548 160.567 747.099 155.6 744.201C150.944 741.408 148.253 737.579 147.839 733.129C146.391 715.745 186.643 687.806 209.098 679.321C213.444 677.665 226.896 672.491 232.588 680.252C233.933 681.908 234.45 684.184 234.45 687.496C234.45 688.323 234.45 689.358 234.347 690.393C232.898 708.916 219.136 733.957 196.577 743.994C189.644 747.099 181.78 748.548 174.537 748.548ZM224.309 783.73C223.068 783.73 221.826 783.73 220.688 783.523C215.41 782.799 211.375 780.212 209.305 776.383C201.234 760.861 227.621 719.574 245.005 703.121C248.42 699.809 258.768 689.979 267.149 694.739C269.426 696.188 271.185 698.878 272.634 703.535C278.428 721.229 275.324 749.686 258.457 767.587C249.144 777.314 235.382 783.73 224.309 783.73ZM322.717 774.107C315.266 787.041 301.504 797.389 289.811 798.527C289.087 798.631 288.466 798.631 287.741 798.631C283.292 798.631 279.567 797.182 277.083 794.285C265.494 781.247 281.326 734.785 294.26 714.607C296.847 710.675 304.505 698.464 313.818 701.362C316.405 702.086 318.681 704.259 321.268 708.502C331.099 724.23 334.824 752.583 322.717 774.107ZM387.287 772.347C380.871 785.8 367.833 797.079 356.347 799.148C355.105 799.355 353.967 799.459 352.932 799.459C349.104 799.459 345.689 798.217 343.309 795.837C330.892 783.523 343.309 736.13 354.795 715.124C357.071 710.985 364.004 698.257 373.317 700.43C375.904 701.051 378.388 703.121 381.285 707.053C392.15 722.057 397.945 750.1 387.287 772.347ZM373.317 658.832C367.212 660.695 360.9 661.523 354.795 661.523C342.895 661.523 331.926 658.522 325.2 654.279C318.888 650.451 317.026 646.104 316.508 643.104C313.404 625.409 351.277 606.576 358.934 602.954C368.868 598.298 401.981 583.914 412.225 595.814C414.088 598.091 414.916 601.402 414.812 606.369C414.502 626.237 398.877 651.175 373.317 658.832ZM458.997 766.967C456.203 781.66 446.373 795.837 435.715 800.7C433.335 801.839 430.851 802.356 428.575 802.356C426.298 802.356 424.125 801.839 422.262 800.804C407.155 792.112 407.258 743.063 413.053 719.781C414.191 715.228 417.709 701.258 427.333 700.948H427.747C430.127 700.948 433.024 702.396 436.646 705.294C451.029 717.194 463.654 742.753 458.997 766.967ZM459.825 644.966C451.961 661.833 430.541 682.425 417.916 682.425C417.399 682.425 416.778 682.322 416.261 682.218C412.949 681.701 407.362 679.217 406.534 668.042C404.982 647.553 420.814 601.712 436.749 596.746C437.681 596.435 438.715 596.332 439.854 596.332C441.716 596.332 443.786 596.746 445.959 597.573C453.202 600.367 458.79 606.162 461.791 613.716C465.62 623.029 464.895 634.205 459.825 644.966ZM525.43 765.104C522.636 779.798 512.806 793.974 502.147 798.838C499.767 799.976 497.284 800.493 495.007 800.493C492.731 800.493 490.558 799.976 488.695 798.941C473.587 790.146 473.691 741.201 479.486 717.918C480.624 713.365 484.142 699.396 493.766 699.085H494.283C496.767 699.085 499.457 700.534 503.079 703.431C517.462 715.331 530.086 740.89 525.43 765.104ZM529.879 668.456C528.534 670.008 526.051 671.974 521.912 671.974C519.532 671.974 516.427 671.25 512.702 669.284C494.49 659.867 463.654 622.512 467.689 606.266C468.31 603.679 470.276 601.195 473.277 598.815C479.486 594.159 487.247 592.296 495.318 593.745C505.252 595.4 514.358 601.919 520.877 611.853C531.639 627.996 537.951 658.936 529.879 668.456ZM529.155 615.682C526.051 612.164 516.738 601.195 522.119 593.124C523.567 590.951 526.361 589.399 531.121 588.157C549.126 583.397 577.376 587.95 594.243 605.955C604.59 616.717 610.385 632.963 608.109 644.449C607.074 649.726 604.28 653.658 600.348 655.417C598.589 656.245 596.623 656.556 594.346 656.556C576.134 656.556 543.021 632.031 529.155 615.682ZM578.617 789.214C578.617 789.214 579.756 789.421 580.273 789.628C580.48 789.732 580.687 789.835 580.997 789.939C580.17 789.628 579.342 789.421 578.617 789.214ZM574.996 777.521C572.409 779.487 569.615 780.626 566.821 780.626C565.579 780.626 564.441 780.419 563.303 780.005C548.091 774.934 536.812 730.853 537.744 711.399C538.158 702.914 540.848 698.05 545.712 696.912C546.332 696.809 546.953 696.705 547.574 696.705C549.54 696.705 551.713 697.429 554.714 698.982C568.684 706.329 584.516 725.162 586.275 745.65C587.31 758.378 582.653 771.52 574.996 777.521ZM644.326 776.28C641.118 779.798 637.289 781.66 633.357 781.66C632.84 781.66 632.426 781.66 631.909 781.557C614.628 779.591 595.381 734.475 591.552 710.778C590.828 706.122 588.448 691.945 597.14 687.91C599.623 686.771 602.831 686.875 607.488 688.22C625.389 693.394 647.12 712.02 652.397 736.13C655.501 750.721 652.19 767.587 644.326 776.28ZM715.622 760.654C712.621 765.104 708.586 767.587 704.136 767.691H703.929C686.441 767.691 661.4 725.989 654.363 703.224C652.915 698.671 648.672 685.012 656.64 679.735C658.192 678.803 660.158 678.286 662.745 678.286C663.987 678.286 665.435 678.39 666.988 678.597C685.407 681.287 709.517 696.705 718.106 719.781C723.28 733.854 722.245 751.031 715.622 760.654ZM786.194 745.857C783.918 750.721 780.399 753.825 776.053 754.756C775.329 754.86 774.501 754.963 773.777 754.963C756.185 754.963 726.28 720.195 715.829 699.706C713.656 695.567 707.137 682.736 714.173 676.217C716.139 674.354 719.244 673.526 724.107 673.319C742.63 672.905 769.12 683.77 781.537 705.19C788.988 718.022 790.954 735.199 786.194 745.857Z" fill="#E5C99D"/>
<path d="M608.092 644.432C607.057 649.709 604.263 653.641 600.331 655.4C598.572 656.228 596.606 656.539 594.329 656.539C576.117 656.539 543.004 632.014 529.138 615.665C526.034 612.147 516.721 601.178 522.102 593.107C523.55 590.934 526.344 589.382 531.104 588.14C549.109 583.38 577.359 587.933 594.226 605.938C604.574 616.7 610.368 632.946 608.092 644.432Z" fill="#A72947"/>
<path d="M529.902 668.442C528.557 669.994 526.073 671.96 521.934 671.96C519.554 671.96 516.45 671.236 512.724 669.27C494.512 659.853 463.676 622.498 467.712 606.252C468.332 603.665 470.299 601.181 473.299 598.801C479.508 594.145 487.269 592.282 495.34 593.731C505.274 595.387 514.38 601.906 520.899 611.84C531.661 627.982 537.973 658.922 529.902 668.442Z" fill="#A72947"/>
<path d="M459.787 644.959C451.923 661.826 430.503 682.418 417.879 682.418C417.361 682.418 416.74 682.314 416.223 682.211C412.912 681.693 407.324 679.21 406.496 668.034C404.944 647.546 420.776 601.705 436.712 596.738C437.643 596.428 438.678 596.324 439.816 596.324C441.679 596.324 443.748 596.738 445.921 597.566C453.165 600.36 458.752 606.155 461.753 613.708C465.582 623.021 464.858 634.197 459.787 644.959Z" fill="#A72947"/>
<path d="M414.82 606.351C414.51 626.218 398.885 651.157 373.326 658.814C367.221 660.677 360.908 661.504 354.803 661.504C342.903 661.504 331.935 658.504 325.209 654.261C318.896 650.432 317.034 646.086 316.516 643.085C313.412 625.391 351.285 606.558 358.942 602.936C368.876 598.279 401.989 583.896 412.233 595.796C414.096 598.073 414.924 601.384 414.82 606.351Z" fill="#A72947"/>
<path d="M234.43 687.475C234.43 688.303 234.43 689.338 234.327 690.373C232.878 708.895 219.116 733.937 196.557 743.974C189.624 747.078 181.76 748.527 174.517 748.527C167.273 748.527 160.547 747.078 155.58 744.181C150.924 741.387 148.233 737.559 147.819 733.109C146.371 715.725 186.623 687.786 209.078 679.3C213.424 677.645 226.876 672.471 232.568 680.232C233.913 681.887 234.43 684.164 234.43 687.475Z" fill="#A72947"/>
<path d="M580.966 789.939C580.138 789.629 579.31 789.422 578.586 789.215C579.103 789.215 579.724 789.422 580.242 789.629C580.449 789.732 580.656 789.836 580.966 789.939Z" fill="#1D1D1B"/>
<path d="M258.493 767.583C249.18 777.31 235.417 783.726 224.345 783.726C223.103 783.726 221.861 783.726 220.723 783.519C215.446 782.795 211.41 780.208 209.341 776.379C201.269 760.857 227.656 719.57 245.04 703.117C248.455 699.805 258.803 689.975 267.185 694.735C269.461 696.184 271.22 698.874 272.669 703.531C278.464 721.225 275.359 749.682 258.493 767.583Z" fill="#A72947"/>
<path d="M322.746 774.119C315.296 787.053 301.533 797.401 289.84 798.539C289.116 798.643 288.495 798.643 287.77 798.643C283.321 798.643 279.596 797.194 277.112 794.297C265.523 781.259 281.355 734.797 294.29 714.619C296.876 710.687 304.534 698.476 313.847 701.374C316.434 702.098 318.71 704.271 321.297 708.514C331.128 724.242 334.853 752.595 322.746 774.119Z" fill="#A72947"/>
<path d="M387.309 772.333C380.894 785.785 367.855 797.064 356.369 799.133C355.128 799.34 353.989 799.444 352.955 799.444C349.126 799.444 345.711 798.202 343.331 795.822C330.914 783.508 343.331 736.115 354.817 715.109C357.094 710.97 364.027 698.243 373.34 700.416C375.927 701.037 378.41 703.106 381.308 707.038C392.173 722.043 397.967 750.085 387.309 772.333Z" fill="#A72947"/>
<path d="M459.032 766.952C456.238 781.646 446.408 795.823 435.749 800.686C433.369 801.824 430.886 802.342 428.609 802.342C426.333 802.342 424.16 801.824 422.297 800.79C407.189 792.098 407.293 743.049 413.088 719.767C414.226 715.214 417.744 701.244 427.368 700.934H427.782C430.162 700.934 433.059 702.382 436.681 705.28C451.064 717.18 463.688 742.739 459.032 766.952Z" fill="#A72947"/>
<path d="M786.209 745.877C783.933 750.741 780.415 753.845 776.069 754.777C775.344 754.88 774.516 754.984 773.792 754.984C756.201 754.984 726.296 720.215 715.844 699.726C713.671 695.587 707.152 682.756 714.189 676.237C716.155 674.374 719.259 673.546 724.123 673.34C742.645 672.926 769.136 683.791 781.553 705.211C789.003 718.042 790.969 735.219 786.209 745.877Z" fill="#A72947"/>
<path d="M715.602 760.669C712.602 765.119 708.566 767.602 704.116 767.706H703.909C686.422 767.706 661.38 726.004 654.344 703.239C652.895 698.686 648.652 685.027 656.62 679.749C658.172 678.818 660.138 678.301 662.725 678.301C663.967 678.301 665.416 678.404 666.968 678.611C685.387 681.302 709.497 696.72 718.086 719.795C723.26 733.868 722.225 751.046 715.602 760.669Z" fill="#A72947"/>
<path d="M599.047 698.871C599.564 699.802 600.289 700.527 601.116 700.941V700.734C600.599 700.113 599.978 699.595 599.047 698.871Z" fill="#1D1D1B"/>
<path d="M652.413 736.113C647.136 712.002 625.405 693.376 607.504 688.202C602.847 686.857 599.639 686.754 597.156 687.892C588.464 691.928 590.844 706.104 591.568 710.761C595.397 734.457 614.644 779.573 631.924 781.539C632.442 781.643 632.856 781.643 633.373 781.643C637.305 781.643 641.134 779.78 644.342 776.262C652.206 767.57 655.517 750.703 652.413 736.113ZM599.019 698.861C599.95 699.585 600.571 700.102 601.088 700.723L601.709 701.344C601.709 701.344 601.295 701.137 601.088 700.93C600.26 700.516 599.536 699.792 599.019 698.861Z" fill="#A72947"/>
<path d="M574.985 777.508C572.398 779.474 569.605 780.612 566.811 780.612C565.569 780.612 564.431 780.405 563.292 779.991C548.081 774.921 536.802 730.839 537.733 711.385C538.147 702.9 540.838 698.037 545.701 696.898C546.322 696.795 546.943 696.691 547.564 696.691C549.53 696.691 551.703 697.416 554.704 698.968C568.673 706.315 584.505 725.148 586.265 745.636C587.299 758.364 582.643 771.506 574.985 777.508Z" fill="#A72947"/>
<path d="M525.399 765.093C522.605 779.787 512.775 793.963 502.116 798.827C499.736 799.965 497.253 800.482 494.977 800.482C492.7 800.482 490.527 799.965 488.664 798.93C473.557 790.135 473.66 741.19 479.455 717.907C480.593 713.354 484.111 699.385 493.735 699.074H494.252C496.736 699.074 499.426 700.523 503.048 703.42C517.431 715.32 530.055 740.879 525.399 765.093Z" fill="#A72947"/>
<path d="M828.139 995.974C672.509 1018.22 535.607 1028.98 391.67 1028.98C297.608 1028.98 200.65 1024.33 93.3432 1015.43C59.506 1012.53 60.6442 965.862 61.4721 934.922C61.679 928.403 61.7825 922.505 61.4721 918.365C64.8868 918.262 68.4051 917.848 71.8198 917.124C72.2338 917.124 72.5442 917.02 72.9581 916.917C78.3389 915.572 83.4094 913.502 87.8589 910.708C91.7911 910.191 96.4476 908.535 102.242 906.569C113.107 902.844 126.663 898.084 140.84 898.808C158.431 899.532 183.265 908.535 188.646 911.536C188.957 911.639 189.164 911.743 189.474 911.846C189.578 911.95 189.785 911.95 189.888 912.053C199.822 917.02 210.377 919.4 220.621 919.4C230.865 919.4 239.971 917.331 248.663 913.192C248.87 913.192 249.077 913.088 249.284 912.985H249.388C249.388 912.985 250.733 912.674 251.561 912.364C259.943 910.087 285.295 903.154 310.957 904.086C327.721 904.81 356.28 914.847 364.559 918.469C365.076 918.676 365.49 918.883 365.904 919.09C366.318 919.297 366.628 919.504 367.042 919.504C376.045 923.746 385.772 925.816 395.498 925.816C401.086 925.816 406.778 925.195 412.262 923.746C418.16 922.194 423.644 920.021 428.611 917.02C429.129 916.71 429.75 916.399 430.474 915.985C440.718 910.087 467.829 895.704 488.111 895.083C503.012 894.772 523.397 904.292 530.951 907.914C532.503 908.639 533.641 909.156 534.366 909.466C534.573 909.57 534.676 909.57 534.883 909.673C544.3 914.226 554.44 916.503 564.685 916.503C570.273 916.503 575.964 915.882 581.448 914.433C590.347 912.157 598.315 908.121 605.248 902.74C629.255 885.046 668.37 896.842 681.201 900.774C682.753 901.188 684.098 901.602 684.926 901.809C685.133 901.809 685.236 901.809 685.443 901.809C689.272 903.258 693.308 904.292 697.55 904.913C700.965 905.431 704.38 905.638 707.795 905.638C721.04 905.638 733.975 901.706 745.461 894.359C745.461 894.255 745.564 894.255 745.564 894.255C745.978 893.945 746.599 893.634 747.323 893.117C754.67 888.874 775.986 879.044 791.922 876.767C806.099 874.801 819.861 878.009 831.037 880.7C837.038 882.148 842.005 883.08 845.834 883.286C848.628 884.632 851.525 885.666 854.423 886.391C857.734 887.426 861.252 888.046 864.77 888.253C864.77 890.116 864.77 892.186 864.977 894.462C866.323 927.885 868.806 990.076 828.139 995.87V995.974Z" fill="#CB8944"/>
</svg>
